<svg id="Layer_1" data-name="Layer 1" xmlns="http://www.w3.org/2000/svg" viewBox="0 0 207.11 293.71"><path d="M130.1,302.55l.12.16a101.56,101.56,0,0,0-8.18-6.95,83.64,83.64,0,0,1,8.07,9,80.29,80.29,0,0,1,8.11-9.07A101.14,101.14,0,0,0,130.1,302.55ZM227.87,179.8c-4.27-.1-4.39.34-8.42.88a105.36,105.36,0,0,0-11.89,2.7c-.49.14-1,.31-1.45.45V150.72c4.92-5.64,12.77-20.06,12-38.08-.54-13.31-6.16-33.12-29.85-51.85C152.13,32.21,134.09,14.2,133.91,14l-3-3-2.78,3.14c-.17.19-17.21,19.3-54.09,46.52-20.2,14.9-31,31.8-32,50.22-1.1,19.17,8.88,34.15,14.12,39.83v33.69c-1.19-.37-2.37-.76-3.57-1.11a104.25,104.25,0,0,0-11.84-2.63c-4-.54-4.15-1-8.42-.88l-5.79.1,16,72.94.94,4.28,4.71.63c8,1.26,12.44,2.91,20.38,6a26.19,26.19,0,0,1,2.94,1.13l2.91,1.23c1.93.82,3.87,1.6,5.75,2.56l5.63,2.75,5.45,3a199.86,199.86,0,0,1,20.22,13.39c3.39,2.55,7.07,5.21,10.57,7.95-2.91-2.88-6-5.71-8.84-8.46a173.86,173.86,0,0,0-19.92-16.19,144.54,144.54,0,0,0-23.91-13.56l-6.53-2.71c-2.21-.9-4.47-1.51-6.72-2.27l-3.37-1.1c-1.14-.34-2.29-.55-3.44-.82l-3.22-.56L34.51,189.85s27.78-.58,67.74,23.77c0,0-12.37-12.27-27.58-20.65a102.62,102.62,0,0,0-11.58-5.32V147.29l-1.27-1.19c-3.72-3.47-14.07-17.42-13.07-35.41.93-16.21,10.78-31.36,29.28-45,29.9-22.06,47-38.71,53.3-45.3,6.61,6.29,24.23,22.55,52.91,45.22,17.39,13.76,26.56,29.47,27.26,46.7.69,17-7.23,30.33-11,33.8l-1.27,1.19v39.58A104.51,104.51,0,0,0,185.5,193a165.27,165.27,0,0,0-27.93,20c38-24.7,68.09-23.15,68.09-23.15l-11.51,60.26-3.22.56c-1.15.27-2.3.48-3.44.82l-3.41,1.1c-2.25.76-4.51,1.37-6.72,2.27l-6.53,2.71a144.54,144.54,0,0,0-23.91,13.56A173.86,173.86,0,0,0,147,287.3c-2.86,2.75-5.9,5.53-8.78,8.36,3.47-2.69,7.1-5.3,10.49-7.85a200.36,200.36,0,0,1,20.23-13.43l5.45-3,5.63-2.75c1.88-1,3.82-1.74,5.75-2.56l2.91-1.23a26.19,26.19,0,0,1,2.94-1.13c7.94-3.06,12.34-4.71,20.38-6l4.71-.63.94-4.28,16-72.94Z" transform="translate(-26.54 -11.02)" fill="#e2c593"/><path d="M225.66,189.83l-11.51,60.26-3.22.56c-1.15.27-2.3.48-3.44.82l-3.41,1.1c-2.25.76-4.51,1.37-6.72,2.27l-6.53,2.71a144.54,144.54,0,0,0-23.91,13.56A173.86,173.86,0,0,0,147,287.3c-2.86,2.75-5.9,5.53-8.78,8.36a101.14,101.14,0,0,0-8.12,6.89l.12.16a101.56,101.56,0,0,0-8.18-6.95c-2.91-2.88-6-5.71-8.84-8.46a173.86,173.86,0,0,0-19.92-16.19,144.54,144.54,0,0,0-23.91-13.56l-6.53-2.71c-2.21-.9-4.47-1.51-6.72-2.27l-3.37-1.1c-1.14-.34-2.29-.55-3.44-.82l-3.22-.56L34.51,189.85s27.78-.58,67.74,23.77c0,0-12.37-12.27-27.58-20.65a102.62,102.62,0,0,0-11.58-5.32V147.29l-1.27-1.19c-3.72-3.47-14.07-17.42-13.07-35.41.93-16.21,10.78-31.36,29.28-45,29.9-22.06,47-38.71,53.3-45.3,6.61,6.29,24.23,22.55,52.91,45.22,17.39,13.76,26.56,29.47,27.26,46.7.69,17-7.23,30.33-11,33.8l-1.27,1.19v39.58A104.51,104.51,0,0,0,185.5,193a165.27,165.27,0,0,0-27.93,20C195.57,188.28,225.66,189.83,225.66,189.83Z" transform="translate(-26.54 -11.02)" fill="#344c6c"/><path d="M192.05,237.71a91.32,91.32,0,0,0-17.3,8.06c-5.35,3.4-15.38,13.31-15.38,13.31.21-.16.41-.33.61-.5a147,147,0,0,1,15.64-11,103.17,103.17,0,0,1,16.88-8.37,68.85,68.85,0,0,1,9-2.67c3-.94,6.16-1.06,9.28-1.61A59.24,59.24,0,0,0,192.05,237.71Z" transform="translate(-26.54 -11.02)" fill="#e2c593"/><path d="M192.05,224.72a91.94,91.94,0,0,0-17.3,8.06c-5.35,3.41-15.38,13.32-15.38,13.32.21-.16.41-.34.61-.5a144.6,144.6,0,0,1,15.64-11,103.17,103.17,0,0,1,16.88-8.37,68.85,68.85,0,0,1,9-2.67c3-.94,6.16-1.06,9.28-1.61A59.23,59.23,0,0,0,192.05,224.72Z" transform="translate(-26.54 -11.02)" fill="#e2c593"/><path d="M192.05,211.74a91.94,91.94,0,0,0-17.3,8.06c-5.35,3.41-15.38,13.32-15.38,13.32.21-.16.41-.34.61-.5a144.6,144.6,0,0,1,15.64-11.05,103.17,103.17,0,0,1,16.88-8.37,68.89,68.89,0,0,1,9-2.68c3-.93,6.16-1.06,9.28-1.6A59.23,59.23,0,0,0,192.05,211.74Z" transform="translate(-26.54 -11.02)" fill="#e2c593"/><path d="M68,237.71a91.94,91.94,0,0,1,17.3,8.06c5.35,3.4,15.37,13.31,15.37,13.31-.21-.16-.41-.33-.61-.5a147.91,147.91,0,0,0-15.63-11,103.67,103.67,0,0,0-16.89-8.37,68.85,68.85,0,0,0-9-2.67c-3-.94-6.16-1.06-9.27-1.61A59.24,59.24,0,0,1,68,237.71Z" transform="translate(-26.54 -11.02)" fill="#e2c593"/><path d="M68,224.72a91.94,91.94,0,0,1,17.3,8.06c5.35,3.41,15.37,13.32,15.37,13.32-.21-.16-.41-.34-.61-.5a145.88,145.88,0,0,0-15.63-11,103.67,103.67,0,0,0-16.89-8.37,68.85,68.85,0,0,0-9-2.67c-3-.94-6.16-1.06-9.27-1.61A59.23,59.23,0,0,1,68,224.72Z" transform="translate(-26.54 -11.02)" fill="#e2c593"/><path d="M68,211.74a91.94,91.94,0,0,1,17.3,8.06c5.35,3.41,15.37,13.32,15.37,13.32-.21-.16-.41-.34-.61-.5a145.88,145.88,0,0,0-15.63-11.05,103.27,103.27,0,0,0-16.89-8.37,68.89,68.89,0,0,0-9-2.68c-3-.93-6.16-1.06-9.27-1.6A59.23,59.23,0,0,1,68,211.74Z" transform="translate(-26.54 -11.02)" fill="#e2c593"/><path d="M108.15,195.38v.09h0a10.38,10.38,0,0,0,10.38,10.38h23.22a10.38,10.38,0,0,0,10.38-10.38h0v-.09l.08.09a17.37,17.37,0,0,0-7.66-14.84c-10.21-6.91-14.38-12.37-14.38-12.37s-4.17,5.46-14.38,12.37a17.37,17.37,0,0,0-7.67,14.84Z" transform="translate(-26.54 -11.02)" fill="#e2c593"/><path d="M150.4,231.4V210.82H109.82V231.4a9.46,9.46,0,0,0-4.19,7.87v44.78c18.38,12.15,24.48,20.68,24.48,20.68a155.42,155.42,0,0,1,24.48-20.35V239.27A9.47,9.47,0,0,0,150.4,231.4ZM138.47,282H121.75V255.38a8.36,8.36,0,0,1,8.36-8.36h0a8.36,8.36,0,0,1,8.36,8.36V282Z" transform="translate(-26.54 -11.02)" fill="#e2c593"/><path d="M130.11,168.25a13.65,13.65,0,0,1,0-27.22,10.63,10.63,0,1,0,14.64,14.16v.47a13.65,13.65,0,0,1-14.63,12.59Z" transform="translate(-26.54 -11.02)" fill="#e2c593"/><polygon points="106.93 142.57 110.74 139.79 114.55 142.57 113.09 138.09 116.91 135.33 112.19 135.34 110.74 130.85 109.29 135.34 104.58 135.33 108.4 138.09 106.93 142.57" fill="#e2c593"/><path d="M150.64,214H109.3a5.1,5.1,0,0,1-5.1-5.1h0a5.1,5.1,0,0,1,5.09-5.11h41.35a5.11,5.11,0,0,1,5.11,5.11h0a5.1,5.1,0,0,1-5.1,5.1Z" transform="translate(-26.54 -11.02)" fill="#e2c593"/><path d="M92.87,102.17H84.63v-.79a2.64,2.64,0,0,0,1.8-.53,2.5,2.5,0,0,0,.5-1.79,5.42,5.42,0,0,0,0-.57l-1.3-13.32a87.32,87.32,0,0,0-4.09,8L77.34,103h-.76L68.75,83.46l-.56,6q-.39,4.08-.39,6.45,0,5.3,2.65,5.44v.81H62.88v-.78a3.58,3.58,0,0,0,2.31-2.44,24.3,24.3,0,0,0,1-3.45,51,51,0,0,0,1-6.73l.42-4.46v-.69A2,2,0,0,0,67.09,82a2.79,2.79,0,0,0-1.69-.42v-.8h5.48l7.18,17.72,4.12-9.73c1.55-3.68,2.58-6.35,3.07-8h6v.8a3.72,3.72,0,0,0-1.91.4,2,2,0,0,0-.71,1.74v.39L89.9,97.45a8.49,8.49,0,0,0,.57,2.82,2.6,2.6,0,0,0,2.41,1.1Z" transform="translate(-26.54 -11.02)" fill="#e2c593"/><path d="M116,81.55Q112.84,82,112.84,92v4a7.75,7.75,0,0,1-1.13,3.74c-1.29,1.94-3.63,2.91-7,2.91-3.53,0-6-1-7.31-3a6.16,6.16,0,0,1-1-3.56V84.21a3.1,3.1,0,0,0-.52-2.07,2.87,2.87,0,0,0-2-.59v-.8h8.19v.8a2.87,2.87,0,0,0-2,.59,3,3,0,0,0-.53,2.07V96a5.19,5.19,0,0,0,2.45,4.74,6.4,6.4,0,0,0,3.47.89c2.85,0,4.72-1,5.59-3a12.07,12.07,0,0,0,.64-4.5,67,67,0,0,0-.24-6.94c-.43-3.59-1.38-5.46-2.85-5.59v-.8H116Z" transform="translate(-26.54 -11.02)" fill="#e2c593"/><path d="M160.27,102.77h-8.19V102a2.77,2.77,0,0,0,2-.59,3,3,0,0,0,.53-2.07V91.59h-10.2v7.72a2.33,2.33,0,0,0,2,2.65,2.25,2.25,0,0,0,.58,0v.8h-8.2V102a2.77,2.77,0,0,0,2-.59,3,3,0,0,0,.53-2.07V84.8a3,3,0,0,0-.53-2.06,2.87,2.87,0,0,0-2-.58v-.78h8.19v.81a2.87,2.87,0,0,0-2,.58,3,3,0,0,0-.52,2.06v5.75h10.21V84.83a3,3,0,0,0-.52-2.06,2.87,2.87,0,0,0-2-.58v-.81h8.19v.81a2.87,2.87,0,0,0-2,.58,3,3,0,0,0-.53,2.06V99.34a3.08,3.08,0,0,0,.53,2.08,2.73,2.73,0,0,0,2,.58Z" transform="translate(-26.54 -11.02)" fill="#e2c593"/><path d="M182,102.77h-6V102h.38c.19,0,.29-.18.29-.55a1.51,1.51,0,0,0-.07-.37l-2-5.83h-7.32a16.46,16.46,0,0,0-1.16,4.84,1.82,1.82,0,0,0,.56,1.39,2,2,0,0,0,1.42.52H169v.8h-7.51V102q1.9-.1,3.42-4l6.84-17.51h1l5.93,17.12a14.71,14.71,0,0,0,1.15,2.71A2.84,2.84,0,0,0,182,102Zm-7.79-8.57-3.05-8.91-3.52,8.91Z" transform="translate(-26.54 -11.02)" fill="#e2c593"/><path d="M197,87h-1.2a4.4,4.4,0,0,0-1.59-3.82,7,7,0,0,0-4.17-1h-1.24c-.12,1.21-.19,2.31-.19,3.28a7.67,7.67,0,0,0,1,4.37c.76,1.07,2.09,1.61,4,1.61H195v1.15l-6.16.14v6.6a2.34,2.34,0,0,0,2.54,2.66v.8h-8.19V102a2.77,2.77,0,0,0,2-.59,3.06,3.06,0,0,0,.53-2.07V84.8a3,3,0,0,0-.53-2.06,2.87,2.87,0,0,0-2-.58v-.78h12.61c.26,0,.42-.24.47-.74H197Z" transform="translate(-26.54 -11.02)" fill="#e2c593"/><path d="M105.34,121.09h-42c2.48-1.14,2.84-2.41,3.62-5.25.42,1.17,1,1.75,1.76,1.75h31.39V115H93.92c-.39-5,.5-8.86,6.19-9.67a4.37,4.37,0,0,0,3.53-1.75v14h1.73ZM88.63,110.47c.28,2.75-4.38,2.79-4.09,0C84.25,107.74,88.91,107.77,88.63,110.47Zm11.45,1v-2.64c-1.94.31-2.83.63-2.88,2.64Z" transform="translate(-26.54 -11.02)" fill="#e2c593"/><path d="M141.75,121.09H102.07v-3.5h26.38q-4.51-4-4.52-11.57a14.46,14.46,0,0,1,1.88-6.82q1.74-2.83,3.5-5.64a11.63,11.63,0,0,0,1.87-5.74q0-5.35-3.72-5.35a5.63,5.63,0,0,0-4.1,1.25,7.71,7.71,0,0,0-1.73,4,13.23,13.23,0,0,1-.07-1.54,7.13,7.13,0,0,1,1.32-4.42A24.57,24.57,0,0,1,117.45,79a41.66,41.66,0,0,0,4.18.24c.7,0,1.76,0,3.18-.13S127.29,79,128,79a6,6,0,0,1,5.07,2.45,8.84,8.84,0,0,1,1.65,5.47,14.54,14.54,0,0,1-1.87,6.46q-1.72,3.21-3.48,6.41a17,17,0,0,0-1.87,7.37c0,3.42,1.14,6,3.44,7.81s7.07,2.68,9.47,2.68h1.35Z" transform="translate(-26.54 -11.02)" fill="#e2c593"/><path d="M185.08,121.09H136.32v-3.5h18.35v-6.15a1.65,1.65,0,0,0-.58-1.2,1.84,1.84,0,0,0-1.27-.52,10,10,0,0,0,3.43-2,4.59,4.59,0,0,0,1.9-3.29v7h15.79a6.8,6.8,0,0,1,1.2-4,4.28,4.28,0,0,1,3.61-1.75,4.77,4.77,0,0,1,3.46,1.38,4.66,4.66,0,0,1,1.39,3.45v7.08H185Zm-4.92-3.5v-7a1.23,1.23,0,0,0-.42-.93,1.39,1.39,0,0,0-1-.39,1.12,1.12,0,0,0-1.27,1,.86.86,0,0,0,0,.32V115H158.2v2.62Z" transform="translate(-26.54 -11.02)" fill="#e2c593"/><path d="M197.37,121.09H183v-3.5h4.3c0-2.42.72-4.17,2.18-5.26a9.51,9.51,0,0,1,4.25-1.49c1.76-.25,2.74-.51,2.95-.76a9.14,9.14,0,0,0,.67-1Zm-3.52-3.5v-3.21c-2,0-3,1.08-3,3.22Z" transform="translate(-26.54 -11.02)" fill="#e2c593"/></svg>