<svg id="Layer_1" data-name="Layer 1" xmlns="http://www.w3.org/2000/svg" viewBox="0 0 215.77 38.33"><path d="M204,9.21a12.67,12.67,0,0,0-1.63-.16c-.35,0-.81.33-1.38,1a2.94,2.94,0,0,0-.73,1.16v.08a.09.09,0,0,0,.07,0l.3-.24a.87.87,0,0,1,.55-.24,6.17,6.17,0,0,1,2.52.35,8.1,8.1,0,0,1-2.2,1c-.82.26-1.22.44-1.2.53s.45.12,1.28.05a5.68,5.68,0,0,0,1.68-.32,4.49,4.49,0,0,0,1.34-1.19,2.77,2.77,0,0,0,.82-1.54c0-.18-.48-.35-1.46-.51Zm2.44,8.55a3.05,3.05,0,0,0-.25.49.68.68,0,0,1-.63.49c-.42,0-.63-.26-.63-.77a3.28,3.28,0,0,1,.19-.93,3.19,3.19,0,0,0,.19-.81.14.14,0,0,0-.08-.15c-.17-.09-.4.24-.68,1a5.06,5.06,0,0,0-.41,1.57,1.89,1.89,0,0,0,.3,1,1,1,0,0,0,.84.54,1.15,1.15,0,0,0,1-.68,2.41,2.41,0,0,0,.32-1.26c0-.35-.06-.51-.18-.49ZM212.18,29a4.45,4.45,0,0,0-1.21-.51c-.07,0-.26.32-.56,1a4.3,4.3,0,0,0-.5,1.14c0,.07.33.29,1,.67a4.05,4.05,0,0,0,1.19.56c.11,0,.31-.33.61-1a4.94,4.94,0,0,0,.45-1.29A3.31,3.31,0,0,0,212.18,29Zm2.73,4.31a31,31,0,0,0-3.24,1.39,27.43,27.43,0,0,0-3.55,1.79,5,5,0,0,0-.75.84,2,2,0,0,0-.53.93h0A33.78,33.78,0,0,1,210,36.76l3.36-1.56a5.69,5.69,0,0,0,.91-.86c.44-.49.66-.82.66-1ZM213.63,17c-1.35-2.55-2.17-3.82-2.48-3.82s-.44.63-.44,1.9a11.1,11.1,0,0,0,.15,1.63c.12.68.21,1,.29,1s.23-.5.23-1.51a26.35,26.35,0,0,1,2.09,3.6A12.08,12.08,0,0,1,215,23.48c0,.35-.26.53-.79.53a4.86,4.86,0,0,1-1.37-.23,2.85,2.85,0,0,1-1.24-.56c.09-.61,0-.94-.12-1s-.37.33-.67,1.09-.56,1.12-.75,1.12a3,3,0,0,1-1.82-.53c.2-.65.31-1,.34-1.16a.29.29,0,0,0-.11-.26c-.13,0-.32.14-.56.55a4,4,0,0,1-1,1.17,2.81,2.81,0,0,1-1.8.49c-.9,0-1.39-.07-1.46-.21a1.31,1.31,0,0,0,.43-.61,2.1,2.1,0,0,0,.21-.78c0-.12,0-.19-.11-.2s-.23.09-.43.32a2.71,2.71,0,0,1-.85.73c-1.14.66-5.47,1.39-13,2.22-3.64.39-8.26.75-13.88,1q-9,.49-16,.49-14.42,0-27.3-1.28c-3.71-.37-6.16-.67-7.35-.92-3.07-.62-5.18-1.58-6.35-2.88-.54-.6-.94-.9-1.19-.88-.53,0-1.07.51-1.62,1.49a4.61,4.61,0,0,0-.76,2.21,1.74,1.74,0,0,0,.7,1.25q-4.17,3-6.45,4.55c-.42.28-.61.45-.57.52s0,0,.11,0a11.26,11.26,0,0,0,3-.94,11.88,11.88,0,0,0,2.87-1.44A6.52,6.52,0,0,0,116.67,27a6.2,6.2,0,0,0,1.76.69,6.15,6.15,0,0,0,1.85.32c.12,0,.29-.32.49-.93a97.78,97.78,0,0,0,12.4,1.82q5.49.52,14.13.9,7.8.33,12.61.33,5.64,0,15.41-.61c6.22-.38,11.25-.8,15.07-1.23q9.06-1,11.87-2.4a2.05,2.05,0,0,0-.1.55c0,.41.77.61,2.31.61a3.42,3.42,0,0,0,2.7-1.28,3.79,3.79,0,0,0,2.43.89c.5,0,1-.76,1.49-2.26a9.77,9.77,0,0,0,1.39.91,4.35,4.35,0,0,0,1.62.67c.29,0,.62-.22,1-.67a3.67,3.67,0,0,0,.67-2.29c0-1.31-.72-3.34-2.16-6.07ZM117.63.36a.65.65,0,0,0-.45-.22c-1.06,0-2,.79-2.7,2.38a1.89,1.89,0,0,1-.66-.21,1.52,1.52,0,0,0-.58-.19,1.69,1.69,0,0,0-1.23.82,2.22,2.22,0,0,0-.58,1.21q0,.15.12.15c.12,0,.2-.16.48-.5s.52-.49.72-.49a2.18,2.18,0,0,1,.79.27,2.32,2.32,0,0,0,1,.26A3.35,3.35,0,0,0,116.91,3a2.71,2.71,0,0,0,1-2.13.7.7,0,0,0-.26-.48Zm-2.22,13.31q-.6-2.8-1.22-5.61a10.63,10.63,0,0,0-.58-2.35c-.29,0-.44,1.06-.44,3.19L114.1,13q1,4.26,1.23,5.75l.37,2.58a4,4,0,0,0,.29,1.31c.29,0,.44-1,.44-2.87A39.3,39.3,0,0,0,115.41,13.67Zm-11-10.44a10.67,10.67,0,0,0-.5,1.44,6.78,6.78,0,0,1,1.82,4.17c0,.46.08.68.14.68.22,0,.33-.54.33-1.63a6.8,6.8,0,0,0-1.82-4.63Zm3.14,7.88q-.15-.94-.39-.93t-.15.51a1.67,1.67,0,0,1,0,.77.87.87,0,0,1-.46.2.42.42,0,0,1-.43-.16,2.3,2.3,0,0,1-.09-.64c0-.28-.07-.42-.17-.42s-.17.19-.21.53a4.22,4.22,0,0,1-.14.79,1,1,0,0,1-.81.54c-.3,0-.49-.18-.56-.54a1.64,1.64,0,0,1,.1-.49,1.6,1.6,0,0,0,.11-.48.17.17,0,0,0-.09-.17h-.05c-.12,0-.29.3-.52.9a2.3,2.3,0,0,0-.18,1.1,1,1,0,0,0,1,1l.21,0a1.76,1.76,0,0,0,1.12-.76.89.89,0,0,0,.64.21c.78,0,1.17-.47,1.17-1.4a2.26,2.26,0,0,0,0-.52ZM94.55,0c-1.06,0-2,.79-2.73,2.38a2.28,2.28,0,0,1-.61-.24,1.51,1.51,0,0,0-.62-.2c-.38,0-.79.28-1.22.85A2.27,2.27,0,0,0,88.77,4c0,.11,0,.17.12.17s.22-.17.51-.5.53-.51.74-.51a2.16,2.16,0,0,1,.78.25,2.45,2.45,0,0,0,1,.28,3.36,3.36,0,0,0,2.25-.82,2.72,2.72,0,0,0,1-2.14c0-.48-.25-.71-.64-.71ZM111.8,21l-2.48-6.3c-.07-.18-.14-.26-.21-.26a1.3,1.3,0,0,0-.09.39,11.33,11.33,0,0,0-.18,1.41A15.35,15.35,0,0,0,110.1,20a19.75,19.75,0,0,1,1.26,3.5c0,.2-.18.31-.52.31a2.67,2.67,0,0,1-.4,0,2.37,2.37,0,0,1-1.91-.92,10.93,10.93,0,0,1-1.19-3.37l-.84-3.65c-.15-.65-.28-1-.39-1a4,4,0,0,0-.54,1.9,6.94,6.94,0,0,0,.23,1.1,21.8,21.8,0,0,1,.8,4,2,2,0,0,1-.9,1.77,3.31,3.31,0,0,1-2,.57,1.87,1.87,0,0,1-2.07-1.65s0-.08,0-.12a28.48,28.48,0,0,1-.09-2.92q0-1.23-.09-1.23c-.17,0-.34.34-.49,1a3.2,3.2,0,0,0-.09.75,5.71,5.71,0,0,1-1.33.72,8.26,8.26,0,0,0-2.47,1.66,5.07,5.07,0,0,0-1,1.65.75.75,0,0,0,.28,1l.09,0a3.53,3.53,0,0,0,3.51-.49,6.44,6.44,0,0,0,.36-.63,1.22,1.22,0,0,1,.44-.51,3.86,3.86,0,0,0,.57,2.12,2.67,2.67,0,0,0,2.26,1.1A3,3,0,0,0,106,25.47a4.62,4.62,0,0,0,.78-1.57,3.13,3.13,0,0,1,.27-.72,2.8,2.8,0,0,1,.2.64,4.72,4.72,0,0,0,.52,1.3,2.28,2.28,0,0,0,1,.79,3,3,0,0,0,1.24.34,1.78,1.78,0,0,0,1.69-1.3,5.89,5.89,0,0,0,.26-2,6,6,0,0,0-.23-1.93ZM99,11.39a3.19,3.19,0,0,0-2.18-.93c-.32,0-.49.21-.49.63a.87.87,0,0,0,.36.79,3.21,3.21,0,0,0-.17,1.19c0,.59.33.94,1,1a7.42,7.42,0,0,1-1.76,1.64L94,17c-.62.41-.9.68-.85.79s.07.08.16.08a4.13,4.13,0,0,0,1.58-.61,12,12,0,0,0,1.66-1.06,8.22,8.22,0,0,0,1.77-2,2,2,0,0,1,.62.17,2,2,0,0,0,.58.18c.32,0,.48-.33.48-1A2.82,2.82,0,0,0,99,11.44Zm19.6,20.1a11.66,11.66,0,0,0-2.68,1.11A18.56,18.56,0,0,0,113.27,34a9.56,9.56,0,0,0-.93,1c-.33.41-.46.66-.4.75H112l1.83-1c1.22-.61,2.44-1.19,3.68-1.76a3.75,3.75,0,0,0,.61-.71,1.86,1.86,0,0,0,.41-.74h0Zm-27-20.67c-.52-2.85-.8-4.44-.84-4.76-.09-.72-.19-1.07-.3-1.07a8.3,8.3,0,0,0-.38,1.78,10.61,10.61,0,0,0-.18,2.11q1.2,6.9,1.71,9.72c.22,1.33.43,3.25.62,5.74q0,.39.21.39c.16,0,.23-.08.23-.26a20.41,20.41,0,0,0,.19-4.42A71.84,71.84,0,0,0,91.61,10.82ZM84.29,1.37c-.06,0-1.36.55-3.89,1.71A43.18,43.18,0,0,0,76.08,5.2a4.44,4.44,0,0,0-.73.83,2,2,0,0,0-.51.9h0a22.36,22.36,0,0,1,3.1-1.54c1.88-.87,3.47-1.6,4.76-2.17a5.3,5.3,0,0,0,.94-.89c.42-.47.63-.79.63-1Zm-1.73,7.2c-.13-.71-.29-1.05-.49-1s-.16.1-.16.24a3.38,3.38,0,0,0,0,.45,3.38,3.38,0,0,1,0,.45c0,.51-.21.76-.64.76a.37.37,0,0,1-.39-.24,4,4,0,0,1-.14-.75c0-.34-.13-.51-.23-.49s-.19.22-.23.58-.07.6-.12.89a.87.87,0,0,1-.84.56c-.33.08-.53-.09-.61-.53a1.06,1.06,0,0,1,0-.5,4.65,4.65,0,0,0,.2-.52c0-.11,0-.19-.09-.22h0c-.11,0-.29.33-.53,1a3,3,0,0,0-.1,1.19,1.22,1.22,0,0,0,.46.78,1.08,1.08,0,0,0,.87.2,1.46,1.46,0,0,0,1.15-.84,1,1,0,0,0,.79.36c.79,0,1.19-.53,1.19-1.6a3.82,3.82,0,0,0-.08-.75ZM97,29.07a16.7,16.7,0,0,0-2.62,1.44,11,11,0,0,0-1,.93c-.32.42-.44.68-.35.77h0a2.65,2.65,0,0,0,.65-.33c.53-.32.92-.54,1.16-.66,1.23-.6,2.47-1.19,3.71-1.77a5.3,5.3,0,0,0,.9-.87c.34-.39.37-.59.11-.59a11.81,11.81,0,0,0-2.63,1.07ZM71.32,3.75a13.16,13.16,0,0,0-1.65-.16c-.35,0-.8.34-1.37,1s-.75,1-.75,1.15V5.8h.07A1.4,1.4,0,0,0,68,5.67a.8.8,0,0,1,.53-.23,11.39,11.39,0,0,1,1.31.13A5.56,5.56,0,0,1,71,5.83a9.16,9.16,0,0,1-2.18,1c-.83.26-1.24.44-1.23.52s.21.1.54.1a6.06,6.06,0,0,0,2.42-.38A4.14,4.14,0,0,0,71.91,5.8a2.81,2.81,0,0,0,.86-1.51C72.8,4.08,72.3,3.91,71.32,3.75ZM87.38,15q-1.06-6-1.06-6.14c.19-.52.35-1,.49-1.59A1.92,1.92,0,0,0,86.53,7a2,2,0,0,1-.81-1.62q0-.48-.15-.48c-.14,0-.32.36-.52,1.09a6.85,6.85,0,0,0-.27,1.42,1.8,1.8,0,0,0,.35,1.12l1.25,6.77q1.22,6.6,1.22,7.54c0,.69-.58,1-1.74,1a1.58,1.58,0,0,1-.57-.08,11.8,11.8,0,0,1-1-1c-.26.76-.5,1.54-.71,2.33a1.78,1.78,0,0,1,1,1.58c0,.35-.39.91-1.16,1.67a7.61,7.61,0,0,1-5.48,2.33,11.66,11.66,0,0,1-1.45-.13A9.75,9.75,0,0,0,75,30.4c-.16,0-.23,0-.23.12s.34.45,1,.81a9.67,9.67,0,0,0,1.55.67,9.13,9.13,0,0,0,2.56.67A5.09,5.09,0,0,0,83,30.93a7.92,7.92,0,0,0,2.53-4.44,2.43,2.43,0,0,0,2.23-1.34,5.2,5.2,0,0,0,.64-2.67A54.3,54.3,0,0,0,87.38,15ZM63.31,4.38a8.6,8.6,0,0,0-.49,1.4,6.69,6.69,0,0,1,1.45,2.38A7.74,7.74,0,0,1,64.6,10c0,.47.1.7.16.7.23,0,.35-.54.35-1.63A6.87,6.87,0,0,0,63.31,4.38ZM59.91,0c-1,0-1.93.8-2.7,2.38a1.57,1.57,0,0,1-.66-.22A1.33,1.33,0,0,0,55.91,2a1.72,1.72,0,0,0-1.23.84,2.24,2.24,0,0,0-.58,1.24c0,.11,0,.16.13.16s.22-.16.49-.5.51-.5.71-.5a2.25,2.25,0,0,1,.8.24,2.45,2.45,0,0,0,1,.24,3.4,3.4,0,0,0,2.28-.84,2.69,2.69,0,0,0,1-2.12C60.52.28,60.3,0,59.91,0Zm2.91,13.49A4.76,4.76,0,0,0,61.63,13c-.1,0-.26.3-.47.9a5.43,5.43,0,0,0-.32,1.18c0,.15.29.41.86.78a3.44,3.44,0,0,0,1.12.55c.11,0,.29-.33.57-1a4.87,4.87,0,0,0,.41-1.22,3.78,3.78,0,0,0-1-.64ZM57.7,10.91c-.48-2.31-.79-3.9-.93-4.78-.12-.67-.23-1-.36-1a8.31,8.31,0,0,0-.33,1.79,11.4,11.4,0,0,0-.2,2.1C56.44,12,57,14.88,57.6,17.8q.4,2.14.72,5.74c.06.27.15.4.26.4s.15-.1.22-.31a22.89,22.89,0,0,0,.09-4.38,60.13,60.13,0,0,0-1.24-8.34ZM47.49,9c-.14-.71-.3-1.05-.49-1s-.16.1-.16.26a2.13,2.13,0,0,0,.07.44,3.38,3.38,0,0,1,0,.45c0,.51-.22.76-.66.76a.43.43,0,0,1-.34-.21,4.21,4.21,0,0,0-.11-.6V8.92c0-.34-.13-.5-.23-.49s-.21.21-.25.58a3.08,3.08,0,0,1-.1.89.87.87,0,0,1-.84.56c-.33.08-.53-.09-.63-.52a1.63,1.63,0,0,1,.06-.54,4.5,4.5,0,0,0,.08-.51.25.25,0,0,0-.09-.23c-.11-.06-.3.28-.58,1a2.82,2.82,0,0,0-.08,1.19,1,1,0,0,0,1,1h.06A1.48,1.48,0,0,0,45.62,11a.9.9,0,0,0,.77.37c.8,0,1.19-.53,1.19-1.6A5.16,5.16,0,0,0,47.49,9ZM66.76,30.91a14.33,14.33,0,0,0-2.61,1.42,8,8,0,0,0-.93,1c-.35.41-.48.66-.4.74l1.89-1c1.22-.61,2.44-1.19,3.68-1.76a6.67,6.67,0,0,0,.9-.86c.32-.4.36-.6.1-.6A11.32,11.32,0,0,0,66.76,30.91Zm-14-19.15C51.93,7.25,51.41,5,51.19,5.13s-.5.86-.66,2.25a21.86,21.86,0,0,0-.18,2.55,38.59,38.59,0,0,0,.24,4.56c.14,1.2.29,1.8.43,1.8s.11-.3.11-.9L51,12.16a29.17,29.17,0,0,1,.08-3.37l1.11,5.81a52.88,52.88,0,0,1,1,6c0,.32-.33.54-1,.66a2.37,2.37,0,0,1-1.24,0,6.31,6.31,0,0,1-.84-.71c-.33-.23-.6,0-.79.79s-.16,1.26.14,1.56c.67.53,1,1,1,1.49,0,.77-.62,1.67-1.87,2.69a6.06,6.06,0,0,1-3.71,1.59,2.57,2.57,0,0,1-2.38-1.1,4.22,4.22,0,0,1-.44-1.74c-.06-.67-.13-1-.21-1s-.32.42-.32,1.25a5.34,5.34,0,0,0,.44,2.2,3.77,3.77,0,0,0,3.66,2.52c1.41,0,2.72-.85,4-2.55a7.3,7.3,0,0,0,1.67-4.44,2.57,2.57,0,0,0,2.18-1.25,5.6,5.6,0,0,0,.4-2.59,68.79,68.79,0,0,0-1.19-8.21ZM34.65,4Q22.91,7,19.84,8.44a7.36,7.36,0,0,0-2.41,1.8,2.52,2.52,0,0,0-.75,1.31c0,.06,0,.09.08.09a4.25,4.25,0,0,1,.7-.5,14.17,14.17,0,0,1,2.82-1.38A108,108,0,0,1,33,6q8-1.94,16.87-3.89,1-1,1.71-1.86Q45.56,1.28,34.65,4ZM78.81,14.75c-.51-.2-1.56-.72-3.16-1.55a5.1,5.1,0,0,0-2.32-.66,2.75,2.75,0,0,0-2.74,1.88c-.07.21-.12.43-.17.64.65-.05,1.31-.08,2-.08a10.58,10.58,0,0,1,1.78.12c.55.16,1.3.42,2.24.8C73.16,16.33,71,17,70,18a8.08,8.08,0,0,0-1.1,1.49,6.62,6.62,0,0,1-1,1.3,3.21,3.21,0,0,1-2,.53,1.64,1.64,0,0,1-1-.17,3,3,0,0,1-.6-.8,3.57,3.57,0,0,0-.6-.84c-.08-.08-.27.25-.56,1A1.65,1.65,0,0,0,63.08,22,4,4,0,0,1,64,24.38q0,3.48-10,7.29A51.47,51.47,0,0,1,35.5,34.8a38.16,38.16,0,0,1-18.13-4.13,22.42,22.42,0,0,1-3.8-2.53c-.8-.67-1.56-1.38-2.29-2.12-.56-.57-.88-.83-.95-.78s0,0,0,.08A9.67,9.67,0,0,0,12,28.47a15.88,15.88,0,0,0,3.4,3.91,24.72,24.72,0,0,0,7.74,3.41,44.24,44.24,0,0,0,12,1.57,52.52,52.52,0,0,0,20.61-4.19q8.62-3.63,9.3-9.54h.43a3.19,3.19,0,0,0,3-2.09,4.64,4.64,0,0,0,3.73,1.8c.41,0,.79-.38,1.11-1.13a4.31,4.31,0,0,0,.43-1.69,2.69,2.69,0,0,0-1.12-2.08,14.12,14.12,0,0,1,2.57-.69,18.17,18.17,0,0,1,3.45-.41,16.09,16.09,0,0,1,5,.93,17.08,17.08,0,0,0,1.47-1.81A40.69,40.69,0,0,1,78.81,14.75Zm-62-11.27a12.84,12.84,0,0,0-1.64-.17c-.35,0-.81.35-1.38,1a3,3,0,0,0-.72,1.14c0,.08,0,.11.09.11a1.83,1.83,0,0,0,.31-.24A.89.89,0,0,1,14,5.09a11.73,11.73,0,0,1,1.33.12,4.84,4.84,0,0,1,1.24.28,8.9,8.9,0,0,1-2.2.94c-.83.27-1.23.43-1.2.5s.19.12.54.12a7.08,7.08,0,0,0,2.42-.33A5,5,0,0,0,17.45,5.5,2.84,2.84,0,0,0,18.27,4c0-.16-.51-.3-1.48-.49ZM24.36,14.1c-.05.23-.1.45-.14.68-.09.42-.31.63-.65.63-.64,0-1-.5-1-1.49v-.83c0-.09,0-.31-.09-.32s-.25.29-.36.92A7.86,7.86,0,0,0,22,15a2.76,2.76,0,0,0,.34,1.32,1.18,1.18,0,0,0,1.07.72,1.07,1.07,0,0,0,1-.65,2.68,2.68,0,0,0,.27-1.21q0-1.17-.3-1.05Zm9.06,9.67a4.09,4.09,0,0,0-.25.57,3.3,3.3,0,0,0-.22.74.14.14,0,0,0,0,.09,6.84,6.84,0,0,1,1.78,4.17c0,.47.1.7.16.7a2.73,2.73,0,0,0,.3-1.6,6.89,6.89,0,0,0-1.79-4.67Zm11.13-7.6A33,33,0,0,1,40.91,15,9.32,9.32,0,0,0,39,14.36a2.4,2.4,0,0,0-2.08,1.17,2.83,2.83,0,0,0-.57,1.5.06.06,0,0,0,0,.06c.44,0,.89-.06,1.34-.06a13.48,13.48,0,0,1,5.06.94,11,11,0,0,1-4.6,1.6,2.18,2.18,0,0,1-1.44-.44c-.24-.2-.36-.38-.36-.53,0,.07,0-.07.07-.41s0-.31-.12-.34-.23.11-.49.4a3.88,3.88,0,0,1-1.37,1,25.56,25.56,0,0,1-5.52,1.34,52,52,0,0,1-8.45.69q-7.76,0-10.59-3.13c-.55-.6-.94-.89-1.16-.88-.56,0-1.11.51-1.65,1.48A4.68,4.68,0,0,0,6.33,21,1.7,1.7,0,0,0,7,22.21C4.36,24.14,2.22,25.64.59,26.73.17,27,0,27.2,0,27.29s0,.05.13.05a11.39,11.39,0,0,0,3-1A11.81,11.81,0,0,0,6,24.92a6.63,6.63,0,0,0,1.54-2.4,8,8,0,0,0,1.78.69,6.35,6.35,0,0,0,1.83.33c.26-.08.45-.42.58-1,1.42.71,3.9,1.07,7.46,1.07a50.87,50.87,0,0,0,10.3-1q5.31-1.08,6.06-2.82c.62,1.21,1.3,1.82,2,1.82a19.75,19.75,0,0,0,4.5-1.53,16.61,16.61,0,0,1,5.34-1.53,8.92,8.92,0,0,1,2.35.31q.12,0,.72-1.05a5.15,5.15,0,0,0,.49-1h0a26.74,26.74,0,0,1-6.43-.64Zm-18.9,8.9a3.73,3.73,0,0,0-1.2-.46,13.61,13.61,0,0,0-.79,1.63l-1.34-.57a2.59,2.59,0,0,0-.94-.3c-.1,0-.27.38-.5,1a3.66,3.66,0,0,0-.29,1.17,3,3,0,0,0,1,.59,4.72,4.72,0,0,0,1.22.46c.13,0,.39-.54.8-1.63a5.55,5.55,0,0,0,2.16.93c.1,0,.28-.38.57-1a3.14,3.14,0,0,0,.4-1.22,3.62,3.62,0,0,0-1.11-.6Zm-18.4,6A15.75,15.75,0,0,0,4.6,32.5C3.48,33.5,3,34,3.29,34.16h.06c.15-.11.77-.44,1.85-1S7.63,32,8.86,31.39a4.13,4.13,0,0,0,.91-.81c.34-.4.37-.6.11-.6A10.66,10.66,0,0,0,7.23,31.1Zm109-28.68a3,3,0,0,1-1.22.19c.54-1,1-1.47,1.54-1.47a.48.48,0,0,1,.54.41.29.29,0,0,1,0,.13c0,.33-.29.58-.86.77ZM117,24a1,1,0,0,1,.31-.54c.2-.23.37-.35.49-.35s.29.24.56.74a5.53,5.53,0,0,0,.9,1.29c-1.5-.28-2.26-.66-2.26-1.11ZM93.55,2.29a3.17,3.17,0,0,1-1.22.18c.52-1,1-1.5,1.54-1.5.35,0,.53.19.53.57S94.12,2.09,93.55,2.29Zm5.83,11.17a3.46,3.46,0,0,1-.83-.2,2.8,2.8,0,0,0,.08-.57.84.84,0,0,0-.08-.41,1.42,1.42,0,0,1,.64.49,1.07,1.07,0,0,1,.35.55v.06S99.47,13.46,99.38,13.46Zm-1.47-.29c-.56,0-.84-.11-.84-.32,0-.47.17-.71.49-.71s.44.18.44.54A1.37,1.37,0,0,1,97.91,13.17Zm2.85,9.5a4.32,4.32,0,0,1-2.39.46c-.47,0-.7-.11-.7-.2A13.15,13.15,0,0,1,100.81,21C100.78,21.33,100.76,21.88,100.76,22.67ZM58.91,2.32a3,3,0,0,1-1.22.2c.54-1,1-1.47,1.54-1.47a.48.48,0,0,1,.54.41.29.29,0,0,1,0,.13C59.77,1.88,59.48,2.13,58.91,2.32ZM72.29,21.13a3.46,3.46,0,0,1-1.57-.5,2.68,2.68,0,0,1-.62-.49c-.25-.26-.32-.46-.22-.61s.26-.13.57-.11a2.29,2.29,0,0,1,.85.23c.81.43,1.21.88,1.21,1.34C72.51,21.08,72.44,21.13,72.29,21.13ZM7.82,19.53a1,1,0,0,1,.3-.55,1,1,0,0,1,.5-.38c.1,0,.28.25.55.76a5.36,5.36,0,0,0,.9,1.31Q7.82,20.2,7.82,19.53Z" transform="translate(0 0.03)" fill="#e2c593"/></svg>