<svg id="Layer_1" data-name="Layer 1" xmlns="http://www.w3.org/2000/svg" viewBox="0 0 607.3 228.94"><path d="M602.73,129.78c-3.33-.08-3.42.26-6.57.68a81.49,81.49,0,0,0-9.26,2.08l-1.13.35V107.1c3.83-4.39,10-15.63,9.38-29.68C594.73,67,590.35,51.6,571.89,37,543.72,14.72,529.65.68,529.51.54L527.2-1.77,525,.68c-.13.14-13.42,15-42.17,36.26-15.74,11.62-24.14,24.79-25,39.15-.86,14.94,6.91,26.62,11,31.05V133.4c-.93-.29-1.86-.59-2.79-.86a81.65,81.65,0,0,0-9.27-2.08c-3.14-.42-3.23-.76-6.57-.68l-4.51.08,12.48,56.86.74,3.33,3.67.49c6.26,1,9.69,2.27,15.88,4.66a21.35,21.35,0,0,1,2.3.88l2.27,1c1.5.63,3,1.24,4.47,2l4.4,2.14,4.25,2.36A154,154,0,0,1,512,214c4.85,3.64,10.43,7.57,14.62,11.61v-.15c4.18-4,9.66-7.85,14.51-11.49a154,154,0,0,1,15.76-10.43l4.25-2.36,4.39-2.14c1.47-.75,3-1.36,4.48-2l2.27-1a20.41,20.41,0,0,1,2.29-.88c6.19-2.39,9.62-3.67,15.89-4.66l3.67-.49.73-3.33,12.49-56.86ZM592,184.57l-2.52.44c-.89.21-1.79.37-2.68.64l-2.65.85c-1.76.6-3.52,1.07-5.24,1.77l-5.1,2.11A113.68,113.68,0,0,0,555.22,201a135.3,135.3,0,0,0-15.53,12.63c-4.55,4.36-9.66,8.85-13.17,13.59-3.51-4.7-8.67-9.26-13.18-13.59A135.3,135.3,0,0,0,497.81,201a114.19,114.19,0,0,0-18.64-10.57l-5.09-2.11c-1.72-.7-3.49-1.17-5.24-1.77l-2.65-.85c-.89-.27-1.79-.43-2.69-.64l-2.51-.44-9-47s21.65-.45,52.8,18.53A110.07,110.07,0,0,0,483.29,140a80.55,80.55,0,0,0-9-4.16V104.47l-1-.92c-2.91-2.71-11-13.58-10.2-27.61.72-12.64,8.4-24.44,22.83-35.08,23.3-17.2,36.6-30.18,41.54-35.32,5.16,4.91,18.9,17.58,41.25,35.25,13.55,10.73,20.71,23,21.25,36.41.54,13.25-5.64,23.64-8.54,26.35l-1,.92v30.86a82,82,0,0,0-10.71,4.76,128.24,128.24,0,0,0-21.77,15.61c29.58-19.26,53.08-18,53.08-18Z" transform="translate(0 1.77)" fill="#e2c593"/><path d="M574.81,174.92a72.23,72.23,0,0,0-13.49,6.28c-4.17,2.66-12,10.38-12,10.38l.48-.39A111.47,111.47,0,0,1,562,182.58a80.7,80.7,0,0,1,13.17-6.53,53.09,53.09,0,0,1,7-2.08,57.06,57.06,0,0,1,7.24-1.25A45.93,45.93,0,0,0,574.81,174.92Z" transform="translate(0 1.77)" fill="#e2c593"/><path d="M574.81,164.8a72.23,72.23,0,0,0-13.49,6.28c-4.17,2.66-12,10.38-12,10.38l.48-.39a112.6,112.6,0,0,1,12.2-8.6,80.7,80.7,0,0,1,13.17-6.53,53.09,53.09,0,0,1,7-2.08,57.06,57.06,0,0,1,7.24-1.25A46.08,46.08,0,0,0,574.81,164.8Z" transform="translate(0 1.77)" fill="#e2c593"/><path d="M574.81,154.68A71.31,71.31,0,0,0,561.32,161c-4.17,2.66-12,10.38-12,10.38l.48-.39A111.47,111.47,0,0,1,562,162.34a79.9,79.9,0,0,1,13.17-6.53,53.09,53.09,0,0,1,7-2.08,57.06,57.06,0,0,1,7.24-1.25A45.65,45.65,0,0,0,574.81,154.68Z" transform="translate(0 1.77)" fill="#e2c593"/><path d="M478.07,174.92a71.39,71.39,0,0,1,13.5,6.28c4.17,2.66,12,10.38,12,10.38l-.47-.39a114,114,0,0,0-12.19-8.61,80.6,80.6,0,0,0-13.16-6.53,53.09,53.09,0,0,0-7-2.08,57.21,57.21,0,0,0-7.23-1.25A46,46,0,0,1,478.07,174.92Z" transform="translate(0 1.77)" fill="#e2c593"/><path d="M478.07,164.8a71.39,71.39,0,0,1,13.5,6.28c4.17,2.66,12,10.38,12,10.38l-.47-.39a113,113,0,0,0-12.23-8.6,80.6,80.6,0,0,0-13.16-6.53,53.09,53.09,0,0,0-7-2.08,57.21,57.21,0,0,0-7.23-1.25A46,46,0,0,1,478.07,164.8Z" transform="translate(0 1.77)" fill="#e2c593"/><path d="M478.07,154.68a70.78,70.78,0,0,1,13.5,6.28c4.17,2.66,12,10.38,12,10.38l-.47-.39a114,114,0,0,0-12.19-8.61,79.81,79.81,0,0,0-13.16-6.53,53.09,53.09,0,0,0-7-2.08,57.21,57.21,0,0,0-7.23-1.25A45.74,45.74,0,0,1,478.07,154.68Z" transform="translate(0 1.77)" fill="#e2c593"/><path d="M509.4,141.91V142h0a8.08,8.08,0,0,0,8.08,8.08h18.09a8.1,8.1,0,0,0,8.09-8.08h0v-.08a.32.32,0,0,1,.06.08,13.52,13.52,0,0,0-6-11.57c-8-5.39-11.21-9.65-11.21-9.65s-3.25,4.26-11.21,9.65a13.53,13.53,0,0,0-6,11.57Z" transform="translate(0 1.77)" fill="#e2c593"/><path d="M542.33,170V154H510.7v16a7.43,7.43,0,0,0-3.27,6.14V211c14.34,9.48,19.14,16.13,19.14,16.13,5.77-5.93,12.14-12.25,19-16.88V176.14A7.34,7.34,0,0,0,542.33,170ZM533,209.47H520v-20.8a6.52,6.52,0,0,1,13,0v5.68Z" transform="translate(0 1.77)" fill="#e2c593"/><path d="M526.57,120.77a10.64,10.64,0,0,1,0-21.22,8.29,8.29,0,1,0,11.38,11v.37a10.64,10.64,0,0,1-11.37,9.85Z" transform="translate(0 1.77)" fill="#e2c593"/><polygon points="529.14 111.11 532.11 108.95 535.08 111.11 533.94 107.62 536.92 105.46 533.24 105.47 532.11 101.97 530.98 105.47 527.31 105.46 530.29 107.62 529.14 111.11" fill="#e2c593"/><path d="M542.57,156.47H510.3a4,4,0,0,1-4-4h0a4,4,0,0,1,4-4h32.27a4,4,0,0,1,4,4h0A4,4,0,0,1,542.57,156.47Z" transform="translate(0 1.77)" fill="#e2c593"/><path d="M91.58,129.64H66.47v-2.45c2.67-.07,4.49-.61,5.48-1.63s1.49-2.84,1.51-5.46a11.39,11.39,0,0,0-.1-1.74l-4-40.58A269,269,0,0,0,56.91,102L44.1,132H41.8L17.91,72.61,16.18,90.94Q15,103.35,15,110.59q0,16.13,8.07,16.59v2.45H0v-2.45q4.38-1,7-7.45a73.81,73.81,0,0,0,3-10.52,158.06,158.06,0,0,0,3.22-20.52l1.27-13.58V73c0-2.45-.52-4.1-1.58-5s-2.64-1.21-5.15-1.28V64.34H24.45l21.89,54L58.9,88.68Q66,71.89,68.24,64.33H86.47v2.45q-4.14.1-5.82,1.23c-1.43.95-2.14,2.72-2.15,5.31v1.17l3.88,40.74q.62,6.63,1.74,8.57c1.19,2.15,3.64,3.28,7.35,3.37Z" transform="translate(0 1.77)" fill="#e2c593"/><path d="M162,66.8q-9.54,1.44-9.55,31.91,0,11-.1,12.15-.56,7.14-3.42,11.38-5.93,8.88-21.23,8.88-16.14,0-22.26-9.14a18.59,18.59,0,0,1-3-10.82V74.92c0-3.06-.53-5.16-1.61-6.3s-3.12-1.75-6.15-1.82V64.35h25V66.8c-3,.07-5.08.67-6.15,1.82s-1.6,3.25-1.61,6.3v35.83q0,9.81,7.46,14.45a19.28,19.28,0,0,0,10.51,2.66q13.06,0,17-9.18,1.93-4.55,1.94-13.73,0-15-.71-21.14-2-16.43-8.68-17V64.31H162Z" transform="translate(0 1.77)" fill="#e2c593"/><path d="M297,131.49H272V129c3,0,5-.64,6.12-1.82s1.64-3.27,1.64-6.3V97.39h-31.1v23.53q0,7.92,7.76,8.12v2.45h-25V129c3,0,5.08-.63,6.15-1.79s1.61-3.27,1.61-6.33V76.72c0-3.07-.54-5.17-1.61-6.28s-3.12-1.72-6.15-1.79V66.2h25v2.45c-3,.07-5.08.66-6.15,1.79s-1.61,3.21-1.61,6.28v17.5h31.14V76.72c0-3.07-.54-5.17-1.61-6.28S275,68.72,272,68.65V66.2h25v2.45c-3,.07-5.08.66-6.15,1.79s-1.61,3.21-1.61,6.28v44.2q0,4.65,1.61,6.36C291.93,128.42,294,129,297,129Z" transform="translate(0 1.77)" fill="#e2c593"/><path d="M363.23,131.49H344.9V129h1.17c.58,0,.87-.56.87-1.69a3.88,3.88,0,0,0-.2-1.12l-6.13-17.76H318.29q-3.53,9.9-3.53,14.75a5.54,5.54,0,0,0,1.69,4.23,6.09,6.09,0,0,0,4.34,1.59h2.7v2.45H300.64V129q5.78-.31,10.42-12.2L332,63.5h3l18.07,52.16a47,47,0,0,0,3.52,8.27q3,4.95,6.64,5.11Zm-23.74-26.14L330.2,78.2l-10.72,27.15Z" transform="translate(0 1.77)" fill="#e2c593"/><path d="M408.76,83.35h-3.68q0-8.11-4.85-11.64-4.19-3.06-12.71-3.06h-3.88c-.37,3.71-.56,7-.56,10q0,9.24,2.91,13.32,3.47,4.91,12.2,4.9h4.24v3.52l-18.79.41v20.11q0,7.86,7.76,8.12v2.45h-25V129c3,0,5.08-.63,6.15-1.79s1.61-3.27,1.61-6.33V76.71c0-3.07-.54-5.17-1.61-6.28s-3.12-1.72-6.15-1.79V66.19H405c.78,0,1.26-.75,1.43-2.24h2.25Z" transform="translate(0 1.77)" fill="#e2c593"/><path d="M129.57,187.32H1.48c7.56-3.48,8.65-7.35,11-16q1.9,5.34,5.34,5.34h95.69v-8H94.64c-1.2-15.15,1.53-27,18.87-29.49,3.67-.43,7.57-.9,10.76-5.34v42.8h5.26ZM78.64,154.94c.87,8.39-13.34,8.49-12.47,0C65.29,146.61,79.5,146.71,78.64,154.94Zm34.91,3v-8.08c-5.93.95-8.64,1.93-8.78,8Z" transform="translate(0 1.77)" fill="#e2c593"/><path d="M240.44,187.32H119.59V176.64H200q-13.76-12.21-13.76-35.26,0-10.09,5.71-20.78,5.34-8.64,10.68-17.19,5.67-9.73,5.67-17.49,0-16.32-11.34-16.31-8.64,0-12.51,3.8-3.45,3.36-5.27,12.07A40.62,40.62,0,0,1,179,80.8q0-8.19,4-13.46a78.24,78.24,0,0,1-16.53-8.42,126,126,0,0,0,12.73.74c2.14,0,5.38-.14,9.69-.41s7.55-.4,9.7-.4q9.79,0,15.43,7.46Q219,73,219,83q0,8.57-5.7,19.68-5.28,9.81-10.61,19.54Q197,134.14,197,144.67q0,15.66,10.5,23.81c7,5.44,21.54,8.16,28.86,8.16h4Z" transform="translate(0 1.77)" fill="#e2c593"/><path d="M372.59,187.32H224V176.64H279.9V157.91a4.89,4.89,0,0,0-1.76-3.66,5.62,5.62,0,0,0-3.85-1.61,29.84,29.84,0,0,0,10.47-6.07q5.78-5.12,5.78-10v21.36h48.14q.13-7.53,3.65-12.22a13,13,0,0,1,11.12-5.34A14.39,14.39,0,0,1,364,144.58a14.16,14.16,0,0,1,4.24,10.5v21.58h4.39Zm-15-10.68V155.2a3.74,3.74,0,0,0-1.28-2.81,4.06,4.06,0,0,0-2.89-1.21q-3.87,0-3.87,3.88v13.61h-58.9v8Z" transform="translate(0 1.77)" fill="#e2c593"/><path d="M410.05,187.32H366.29V176.64h13.1q0-11,6.65-16,4.24-3.22,13-4.54,8.06-1.17,9-2.34a34.35,34.35,0,0,0,2-3.07Zm-10.76-10.68v-9.78q-9,0-9,9.8Z" transform="translate(0 1.77)" fill="#e2c593"/></svg>